<mxfile host="Electron" modified="2024-02-23T03:26:17.353Z" agent="Mozilla/5.0 (Windows NT 10.0; Win64; x64) AppleWebKit/537.36 (KHTML, like Gecko) draw.io/22.0.2 Chrome/114.0.5735.289 Electron/25.8.4 Safari/537.36" etag="tyhEfN6vWrRQDum2oS-a" version="22.0.2" type="device">
  <diagram name="Page-1" id="X6BpD4NC_RBsdw7fZMX8">
    <mxGraphModel dx="1016" dy="607" grid="1" gridSize="10" guides="1" tooltips="1" connect="1" arrows="1" fold="1" page="1" pageScale="1" pageWidth="1100" pageHeight="850" math="0" shadow="0">
      <root>
        <mxCell id="0" />
        <mxCell id="1" parent="0" />
        <mxCell id="FjZirNhtigmuyQTcBW5--1" value="My App" style="rounded=1;whiteSpace=wrap;html=1;" parent="1" vertex="1">
          <mxGeometry x="380" y="50" width="120" height="60" as="geometry" />
        </mxCell>
        <mxCell id="FjZirNhtigmuyQTcBW5--2" value="" style="endArrow=classic;html=1;rounded=0;exitX=0.5;exitY=1;exitDx=0;exitDy=0;entryX=0.5;entryY=0;entryDx=0;entryDy=0;" parent="1" source="FjZirNhtigmuyQTcBW5--1" target="FjZirNhtigmuyQTcBW5--3" edge="1">
          <mxGeometry width="50" height="50" relative="1" as="geometry">
            <mxPoint x="440" y="170" as="sourcePoint" />
            <mxPoint x="440" y="160" as="targetPoint" />
          </mxGeometry>
        </mxCell>
        <mxCell id="FjZirNhtigmuyQTcBW5--3" value="Material App" style="rounded=1;whiteSpace=wrap;html=1;" parent="1" vertex="1">
          <mxGeometry x="380" y="160" width="120" height="60" as="geometry" />
        </mxCell>
        <mxCell id="FjZirNhtigmuyQTcBW5--4" value="" style="endArrow=classic;html=1;rounded=0;exitX=0.5;exitY=1;exitDx=0;exitDy=0;entryX=0.5;entryY=0;entryDx=0;entryDy=0;" parent="1" edge="1">
          <mxGeometry width="50" height="50" relative="1" as="geometry">
            <mxPoint x="439.5" y="220" as="sourcePoint" />
            <mxPoint x="439.5" y="270" as="targetPoint" />
          </mxGeometry>
        </mxCell>
        <mxCell id="FjZirNhtigmuyQTcBW5--6" value="Tittle" style="rounded=1;whiteSpace=wrap;html=1;" parent="1" vertex="1">
          <mxGeometry x="380" y="270" width="120" height="60" as="geometry" />
        </mxCell>
        <mxCell id="FjZirNhtigmuyQTcBW5--7" value="Theme" style="rounded=1;whiteSpace=wrap;html=1;" parent="1" vertex="1">
          <mxGeometry x="230" y="270" width="120" height="60" as="geometry" />
        </mxCell>
        <mxCell id="FjZirNhtigmuyQTcBW5--8" value="Home" style="rounded=1;whiteSpace=wrap;html=1;" parent="1" vertex="1">
          <mxGeometry x="530" y="270" width="120" height="60" as="geometry" />
        </mxCell>
        <mxCell id="MkoOR-w1hBSsMcynJPTd-1" value="My Home Page" style="rounded=1;whiteSpace=wrap;html=1;" vertex="1" parent="1">
          <mxGeometry x="380" y="410" width="120" height="60" as="geometry" />
        </mxCell>
        <mxCell id="MkoOR-w1hBSsMcynJPTd-2" value="Scaffoid" style="rounded=1;whiteSpace=wrap;html=1;" vertex="1" parent="1">
          <mxGeometry x="380" y="520" width="120" height="60" as="geometry" />
        </mxCell>
        <mxCell id="MkoOR-w1hBSsMcynJPTd-3" value="App bar" style="rounded=1;whiteSpace=wrap;html=1;" vertex="1" parent="1">
          <mxGeometry x="220" y="600" width="120" height="60" as="geometry" />
        </mxCell>
        <mxCell id="MkoOR-w1hBSsMcynJPTd-4" value="Background" style="rounded=1;whiteSpace=wrap;html=1;" vertex="1" parent="1">
          <mxGeometry x="70" y="700" width="120" height="60" as="geometry" />
        </mxCell>
        <mxCell id="MkoOR-w1hBSsMcynJPTd-5" value="Tittle" style="rounded=1;whiteSpace=wrap;html=1;" vertex="1" parent="1">
          <mxGeometry x="320" y="710" width="120" height="60" as="geometry" />
        </mxCell>
        <mxCell id="MkoOR-w1hBSsMcynJPTd-6" value="Body" style="rounded=1;whiteSpace=wrap;html=1;" vertex="1" parent="1">
          <mxGeometry x="550" y="600" width="120" height="60" as="geometry" />
        </mxCell>
        <mxCell id="MkoOR-w1hBSsMcynJPTd-7" value="Child" style="rounded=1;whiteSpace=wrap;html=1;" vertex="1" parent="1">
          <mxGeometry x="480" y="710" width="120" height="60" as="geometry" />
        </mxCell>
        <mxCell id="MkoOR-w1hBSsMcynJPTd-8" value="Images" style="rounded=1;whiteSpace=wrap;html=1;" vertex="1" parent="1">
          <mxGeometry x="700" y="710" width="120" height="60" as="geometry" />
        </mxCell>
        <mxCell id="MkoOR-w1hBSsMcynJPTd-10" value="" style="endArrow=classic;html=1;rounded=0;exitX=0.5;exitY=1;exitDx=0;exitDy=0;entryX=0.5;entryY=0;entryDx=0;entryDy=0;" edge="1" parent="1" source="MkoOR-w1hBSsMcynJPTd-1" target="MkoOR-w1hBSsMcynJPTd-2">
          <mxGeometry width="50" height="50" relative="1" as="geometry">
            <mxPoint x="430" y="510" as="sourcePoint" />
            <mxPoint x="480" y="460" as="targetPoint" />
          </mxGeometry>
        </mxCell>
        <mxCell id="MkoOR-w1hBSsMcynJPTd-11" value="" style="endArrow=classic;html=1;rounded=0;exitX=0;exitY=0.5;exitDx=0;exitDy=0;entryX=0.5;entryY=0;entryDx=0;entryDy=0;" edge="1" parent="1" source="MkoOR-w1hBSsMcynJPTd-2" target="MkoOR-w1hBSsMcynJPTd-3">
          <mxGeometry width="50" height="50" relative="1" as="geometry">
            <mxPoint x="370" y="600" as="sourcePoint" />
            <mxPoint x="480" y="460" as="targetPoint" />
          </mxGeometry>
        </mxCell>
        <mxCell id="MkoOR-w1hBSsMcynJPTd-12" value="" style="endArrow=classic;html=1;rounded=0;exitX=0;exitY=0.852;exitDx=0;exitDy=0;entryX=0.5;entryY=0;entryDx=0;entryDy=0;exitPerimeter=0;" edge="1" parent="1" source="MkoOR-w1hBSsMcynJPTd-3" target="MkoOR-w1hBSsMcynJPTd-4">
          <mxGeometry width="50" height="50" relative="1" as="geometry">
            <mxPoint x="430" y="510" as="sourcePoint" />
            <mxPoint x="480" y="460" as="targetPoint" />
          </mxGeometry>
        </mxCell>
        <mxCell id="MkoOR-w1hBSsMcynJPTd-14" value="" style="endArrow=classic;html=1;rounded=0;exitX=0.984;exitY=0.844;exitDx=0;exitDy=0;entryX=0.5;entryY=0;entryDx=0;entryDy=0;exitPerimeter=0;" edge="1" parent="1" source="MkoOR-w1hBSsMcynJPTd-3" target="MkoOR-w1hBSsMcynJPTd-5">
          <mxGeometry width="50" height="50" relative="1" as="geometry">
            <mxPoint x="430" y="510" as="sourcePoint" />
            <mxPoint x="480" y="460" as="targetPoint" />
          </mxGeometry>
        </mxCell>
        <mxCell id="MkoOR-w1hBSsMcynJPTd-16" value="" style="endArrow=classic;html=1;rounded=0;exitX=1;exitY=0.5;exitDx=0;exitDy=0;entryX=0.5;entryY=0;entryDx=0;entryDy=0;" edge="1" parent="1" source="MkoOR-w1hBSsMcynJPTd-2" target="MkoOR-w1hBSsMcynJPTd-6">
          <mxGeometry width="50" height="50" relative="1" as="geometry">
            <mxPoint x="600" y="590" as="sourcePoint" />
            <mxPoint x="650" y="540" as="targetPoint" />
          </mxGeometry>
        </mxCell>
        <mxCell id="MkoOR-w1hBSsMcynJPTd-17" value="" style="endArrow=classic;html=1;rounded=0;exitX=0.984;exitY=0.844;exitDx=0;exitDy=0;entryX=0;entryY=0;entryDx=0;entryDy=0;exitPerimeter=0;" edge="1" parent="1" target="MkoOR-w1hBSsMcynJPTd-8">
          <mxGeometry width="50" height="50" relative="1" as="geometry">
            <mxPoint x="628" y="660" as="sourcePoint" />
            <mxPoint x="670" y="719" as="targetPoint" />
          </mxGeometry>
        </mxCell>
        <mxCell id="MkoOR-w1hBSsMcynJPTd-18" value="" style="endArrow=classic;html=1;rounded=0;exitX=0;exitY=0.852;exitDx=0;exitDy=0;entryX=0.5;entryY=0;entryDx=0;entryDy=0;exitPerimeter=0;" edge="1" parent="1">
          <mxGeometry width="50" height="50" relative="1" as="geometry">
            <mxPoint x="600" y="661" as="sourcePoint" />
            <mxPoint x="510" y="710" as="targetPoint" />
          </mxGeometry>
        </mxCell>
        <mxCell id="MkoOR-w1hBSsMcynJPTd-19" value="" style="endArrow=classic;html=1;rounded=0;exitX=1;exitY=0.5;exitDx=0;exitDy=0;entryX=0.5;entryY=0;entryDx=0;entryDy=0;" edge="1" parent="1" source="FjZirNhtigmuyQTcBW5--3" target="FjZirNhtigmuyQTcBW5--8">
          <mxGeometry width="50" height="50" relative="1" as="geometry">
            <mxPoint x="560" y="330" as="sourcePoint" />
            <mxPoint x="610" y="280" as="targetPoint" />
          </mxGeometry>
        </mxCell>
        <mxCell id="MkoOR-w1hBSsMcynJPTd-20" value="" style="endArrow=classic;html=1;rounded=0;exitX=0;exitY=0.5;exitDx=0;exitDy=0;entryX=0.5;entryY=0;entryDx=0;entryDy=0;" edge="1" parent="1" source="FjZirNhtigmuyQTcBW5--3" target="FjZirNhtigmuyQTcBW5--7">
          <mxGeometry width="50" height="50" relative="1" as="geometry">
            <mxPoint x="560" y="330" as="sourcePoint" />
            <mxPoint x="610" y="280" as="targetPoint" />
          </mxGeometry>
        </mxCell>
      </root>
    </mxGraphModel>
  </diagram>
</mxfile>
